<svg xmlns="http://www.w3.org/2000/svg" fill-rule="evenodd" viewBox="0 0 100 100">
    <path d="M80.553 38.592h-4.566c-.954-13.506-12.24-24.205-25.984-24.205-13.745 0-25.03 10.699-25.985 24.205h-4.57a1.5 1.5 0 0 0-1.5 1.5v44.021a1.5 1.5 0 0 0 1.5 1.5h61.105a1.5 1.5 0 0 0 1.5-1.5V40.092a1.5 1.5 0 0 0-1.5-1.5zM50.002 17.387c12.09 0 22.029 9.355 22.977 21.205H27.025c.948-11.85 10.887-21.205 22.977-21.205zm29.051 65.226H20.947V41.592h58.104v41.021h.002z"/>
    <path d="M49.995 45.129h-.021c-4.391.015-7.955 3.599-7.943 7.99a7.953 7.953 0 0 0 3.37 6.485V72.82a4.603 4.603 0 0 0 4.597 4.599 4.603 4.603 0 0 0 4.597-4.599V59.606a7.96 7.96 0 0 0 3.37-6.53 7.914 7.914 0 0 0-2.349-5.628 7.92 7.92 0 0 0-5.621-2.319zm2.398 12.322a1.5 1.5 0 0 0-.742.994l-.021.099a1.55 1.55 0 0 0-.034.319V72.82c0 .882-.716 1.599-1.597 1.599s-1.597-.717-1.597-1.599V59.038a1.5 1.5 0 0 0-.766-1.572 4.959 4.959 0 0 1-2.604-4.354 4.976 4.976 0 0 1 4.953-4.982 5.004 5.004 0 0 1 3.516 1.446 4.97 4.97 0 0 1-1.108 7.875z"/>
</svg>
