<?xml version="1.0" encoding="UTF-8"?> <svg xmlns="http://www.w3.org/2000/svg" xmlns:xlink="http://www.w3.org/1999/xlink" xmlns:xodm="http://www.corel.com/coreldraw/odm/2003" xml:space="preserve" width="212.846mm" height="46.258mm" version="1.1" style="shape-rendering:geometricPrecision; text-rendering:geometricPrecision; image-rendering:optimizeQuality; fill-rule:evenodd; clip-rule:evenodd" viewBox="0 0 21284.6 4625.8"> <defs> <style type="text/css"> .fil8 {fill:none;fill-rule:nonzero} .fil0 {fill:#FEFEFE;fill-rule:nonzero} .fil1 {fill:#FEFEFE;fill-rule:nonzero;fill-opacity:0.000000} .fil6 {fill:#0A457F;fill-rule:nonzero} .fil3 {fill:#0E5EAF;fill-rule:nonzero} .fil2 {fill:#0F61B3;fill-rule:nonzero} .fil7 {fill:#15387F;fill-rule:nonzero} .fil4 {fill:#1D85ED;fill-rule:nonzero} .fil5 {fill:#4C9EF0;fill-rule:nonzero} </style> <clipPath id="id0" style="clip-rule:nonzero"> <path d="M1033.84 4327.2l0 -3901.2c0,-81.47 29.25,-150.41 87.74,-206.81 58.49,-56.41 128.47,-84.61 209.95,-84.61l3612.89 0c81.46,0 150.41,29.25 206.82,87.74 58.48,58.49 87.74,128.47 87.74,209.95l0 294.54c0,81.47 -29.26,151.47 -87.74,209.94 -56.41,56.41 -125.36,84.61 -206.82,84.61l-2729.25 0 0 1103 2221.62 0c81.49,0 150.41,29.23 206.82,87.73 58.5,58.5 87.74,127.43 87.74,206.8l0 297.68c0,81.47 -29.24,151.45 -87.74,209.95 -56.41,56.41 -125.33,84.62 -206.82,84.62l-2221.62 0 0 1316.06c0,85.65 -29.25,157.72 -87.74,216.19 -56.4,56.41 -125.34,84.61 -206.81,84.61l-589.09 0c-81.48,0 -151.46,-28.2 -209.95,-84.61 -58.49,-58.47 -87.74,-130.54 -87.74,-216.19z"></path> </clipPath> <clipPath id="id1" style="clip-rule:nonzero"> <path d="M1033.84 4327.2l0 -3901.2c0,-81.47 29.25,-150.41 87.74,-206.81 58.49,-56.41 128.47,-84.61 209.95,-84.61l3612.89 0c81.46,0 150.41,29.25 206.82,87.74 58.48,58.49 87.74,128.47 87.74,209.95l0 294.54c0,81.47 -29.26,151.47 -87.74,209.94 -56.41,56.41 -125.36,84.61 -206.82,84.61l-2729.25 0 0 1103 2221.62 0c81.49,0 150.41,29.23 206.82,87.73 58.5,58.5 87.74,127.43 87.74,206.8l0 297.68c0,81.47 -29.24,151.45 -87.74,209.95 -56.41,56.41 -125.33,84.62 -206.82,84.62l-2221.62 0 0 1316.06c0,85.65 -29.25,157.72 -87.74,216.19 -56.4,56.41 -125.34,84.61 -206.81,84.61l-589.09 0c-81.48,0 -151.46,-28.2 -209.95,-84.61 -58.49,-58.47 -87.74,-130.54 -87.74,-216.19z"></path> </clipPath> </defs> <g id="Слой_x0020_1"> <metadata id="CorelCorpID_0Corel-Layer"></metadata> <path class="fil0" d="M5507.93 4387.39l0 -2090.95c0,-43.65 15.69,-80.62 47.04,-110.86 31.35,-30.21 68.85,-45.32 112.53,-45.32l1936.43 0c43.66,0 80.62,15.66 110.86,47.02 31.33,31.35 47.02,68.84 47.02,112.52l0 157.88c0,43.66 -15.69,81.17 -47.02,112.53 -30.24,30.21 -67.2,45.32 -110.86,45.32l-1462.83 0 0 488.74 1259.6 0c43.69,0 80.62,15.69 110.86,47.04 31.36,30.22 47.02,67.18 47.02,110.84l0 157.87c0,43.66 -15.66,81.18 -47.02,112.53 -30.24,30.22 -67.17,45.35 -110.86,45.35l-1259.6 0 0 495.43 1459.47 0c42.55,0 78.95,15.11 109.17,45.35 30.24,30.24 45.35,67.18 45.35,110.84l0 161.23c0,43.69 -15.67,81.18 -47.02,112.53 -31.35,30.24 -68.87,45.35 -112.53,45.35l-1928.04 0c-43.68,0 -81.18,-15.11 -112.53,-45.35 -31.35,-31.35 -47.04,-69.98 -47.04,-115.89zm2562.91 6.72l0 -2090.95c0,-45.9 15.66,-84.53 47.02,-115.88 31.35,-31.36 68.84,-47.02 112.52,-47.02l938.83 0c485.93,0 839.17,97.39 1059.76,292.23 221.69,193.68 332.53,498.24 332.53,913.63 0,414.26 -110.84,718.27 -332.53,911.97 -220.59,193.7 -573.83,290.54 -1059.76,290.54l-938.83 0c-43.68,0 -81.17,-14.55 -112.52,-43.66 -31.36,-30.24 -47.02,-67.17 -47.02,-110.86zm633.15 -320.78l446.75 0c301.17,0 506.09,-54.85 614.68,-164.6 108.61,-109.72 162.93,-297.25 162.93,-562.61 0,-266.48 -54.32,-454.58 -162.93,-564.3 -108.59,-110.86 -313.51,-166.29 -614.68,-166.29l-446.75 0 0 1457.8zm1944.85 -1615.65l0 -157.88c0,-45.9 15.1,-83.98 45.34,-114.22 30.25,-30.21 68.29,-45.32 114.2,-45.32l2131.27 0c45.91,0 83.98,15.11 114.22,45.32 30.22,30.24 45.32,68.32 45.32,114.22l0 157.88c0,45.91 -15.1,83.98 -45.32,114.19 -30.24,29.11 -68.31,43.66 -114.22,43.66l-749.03 0 0 1778.58c0,43.69 -15.69,80.62 -47.05,110.86 -30.21,29.11 -67.18,43.66 -110.83,43.66l-317.42 0c-43.68,0 -81.18,-14.55 -112.53,-43.66 -30.24,-30.24 -45.35,-67.17 -45.35,-110.86l0 -1778.58 -749.06 0c-45.91,0 -83.95,-14.55 -114.2,-43.66 -30.24,-30.21 -45.34,-68.28 -45.34,-114.19zm2725.81 1929.71l0 -2090.95c0,-43.65 15.67,-80.62 47.02,-110.86 31.35,-30.21 68.84,-45.32 112.53,-45.32l1936.43 0c43.68,0 80.62,15.66 110.86,47.02 31.35,31.35 47.02,68.84 47.02,112.52l0 157.88c0,43.66 -15.67,81.17 -47.02,112.53 -30.24,30.21 -67.18,45.32 -110.86,45.32l-1462.83 0 0 488.74 1259.63 0c43.65,0 80.59,15.69 110.83,47.04 31.36,30.22 47.02,67.18 47.02,110.84l0 157.87c0,43.66 -15.66,81.18 -47.02,112.53 -30.24,30.22 -67.18,45.35 -110.83,45.35l-1259.63 0 0 495.43 1459.47 0c42.54,0 78.95,15.11 109.17,45.35 30.24,30.24 45.34,67.18 45.34,110.84l0 161.23c0,43.69 -15.66,81.18 -47.01,112.53 -31.35,30.24 -68.87,45.35 -112.53,45.35l-1928.04 0c-43.69,0 -81.18,-15.11 -112.53,-45.35 -31.35,-31.35 -47.02,-69.98 -47.02,-115.89zm2735.87 -122.61c-207.14,-198.17 -310.7,-504.4 -310.7,-918.66 0,-415.39 103.56,-722.18 310.7,-920.35 208.26,-199.31 520.07,-298.95 935.46,-298.95l374.55 0c254.16,0 478.63,66.06 673.47,198.17 195.92,132.13 293.9,312.95 293.9,542.48 0,66.06 -19.58,113.64 -58.79,142.74 -39.19,27.99 -77.26,41.99 -114.2,41.99l-199.86 0c-103.01,0 -183.07,-61.57 -240.17,-184.73 -82.84,-176.9 -220.55,-265.35 -413.14,-265.35l-298.95 0c-245.22,0 -411.49,52.62 -498.8,157.85 -87.34,105.25 -131.02,300.09 -131.02,584.46 0,284.4 43.68,479.77 131.02,586.16 87.31,105.22 253.58,157.85 498.8,157.85l334.22 0c192.59,0 329.72,-88.45 411.48,-265.35 57.09,-124.28 137.71,-186.43 241.83,-186.43l199.86 0c52.63,0 94.06,19.61 124.28,58.79 31.35,39.19 47.04,81.73 47.04,127.64 0,229.52 -97.42,410.37 -292.23,542.47 -194.84,131 -419.31,196.51 -673.47,196.51l-409.82 0c-415.39,0 -727.2,-99.09 -935.46,-297.29zm2638.48 125.97l0 -2090.95c0,-43.68 15.66,-81.17 47.02,-112.52 31.35,-31.36 69.98,-47.02 115.89,-47.02l312.36 0c43.68,0 80.62,15.66 110.86,47.02 31.36,31.35 47.02,68.84 47.02,112.52l0 755.76 1155.49 0 0 -755.76c0,-43.68 15.69,-81.17 47.01,-112.52 31.36,-31.36 68.87,-47.02 112.53,-47.02l312.39 0c45.91,0 83.98,15.66 114.2,47.02 31.35,31.35 47.04,68.84 47.04,112.52l0 2090.95c0,43.69 -16.24,81.18 -48.71,112.53 -31.35,30.24 -68.87,45.35 -112.53,45.35l-312.39 0c-43.66,0 -81.17,-14.55 -112.53,-43.66 -31.32,-30.24 -47.01,-67.17 -47.01,-110.86l0 -863.25 -1155.49 0 0 863.25c0,43.69 -15.66,80.62 -47.02,110.86 -30.24,29.11 -67.18,43.66 -110.86,43.66l-312.36 0c-43.69,0 -81.73,-15.11 -114.23,-45.35 -32.46,-31.35 -48.68,-68.84 -48.68,-112.53z"></path> <polygon class="fil0" points="952.41,3200.95 439.02,3200.95 439.02,3674.84 952.41,3674.84 "></polygon> <polygon class="fil0" points="833.95,2233.47 281.07,2233.47 281.07,2707.37 833.95,2707.37 "></polygon> <polygon class="fil0" points="182.35,2964.07 -15.11,2964.07 -15.11,3141.79 182.35,3141.79 "></polygon> <polygon class="fil0" points="340.3,2865.38 142.84,2865.38 142.84,3043.1 340.3,3043.1 "></polygon> <polygon class="fil0" points="952.4,2588.91 656.22,2588.91 656.22,2885.11 952.4,2885.11 "></polygon> <polygon class="fil0" points="1149.88,2134.73 952.43,2134.73 952.43,2312.45 1149.88,2312.45 "></polygon> <polygon class="fil0" points="1268.36,1364.63 952.43,1364.63 952.43,1660.83 1268.36,1660.83 "></polygon> <polygon class="fil0" points="991.9,693.31 340.29,693.31 340.29,1265.94 991.9,1265.94 "></polygon> <polygon class="fil0" points="83.62,1226.47 -113.84,1226.47 -113.84,1404.19 83.62,1404.19 "></polygon> <polygon class="fil0" points="498.28,594.56 182.34,594.56 182.34,871 498.28,871 "></polygon> <polygon class="fil0" points="1327.6,2.19 853.7,2.19 853.7,456.34 1327.6,456.34 "></polygon> <polygon class="fil0" points="320.55,179.9 123.1,179.9 123.1,357.62 320.55,357.62 "></polygon> <polygon class="fil0" points="774.7,1641.15 340.29,1641.15 340.29,2016.3 774.7,2016.3 "></polygon> <g style="clip-path:url(#id0)"> <polygon class="fil1" points="1033.84,134.58 5238.98,134.58 5238.98,4628 1033.84,4628 "></polygon> </g> <g style="clip-path:url(#id1)"> <g id="_2436795011760"> <polygon id="_1" class="fil2" points="3069.55,742.65 2472.85,1048.72 3405.87,1048.72 3460.16,594.56 3080.4,752.52 "></polygon> <polygon class="fil3" points="4654.75,574.87 3953.79,1048.77 5237.26,1048.77 "></polygon> <polygon class="fil4" points="4654.75,574.87 3460.13,594.61 3405.89,1048.77 3967.18,1048.77 "></polygon> <polygon class="fil5" points="4047,120.68 3460.16,594.58 4654.78,574.84 4113.44,120.68 "></polygon> <polygon class="fil6" points="5237.29,1028.56 5237.29,1048.72 4663.48,584.71 4111.77,120.68 5237.29,120.68 "></polygon> <polygon class="fil4" points="1386.85,357.62 1090.66,357.62 1090.66,653.81 1386.85,653.81 "></polygon> <polygon class="fil5" points="2117.45,120.68 2117.45,534.27 2300.54,534.27 2472.87,1048.72 3075.11,742.67 2483.64,120.68 "></polygon> <polygon class="fil2" points="4012.98,120.68 2482.72,120.68 2847.99,515.6 "></polygon> <polygon class="fil4" points="2216.15,1049.88 2216.15,2114.99 1722.5,1759.58 1505.3,1759.58 1510.43,1251.66 1367.08,1251.66 1367.08,535.33 2305,535.33 2472.84,1048.72 "></polygon> <polygon class="fil6" points="1415.8,2727.08 1110.4,2727.08 1110.4,1961.11 1503.06,1961.11 1503.06,1759.55 1721.2,1759.55 2216.16,2114.97 "></polygon> <polygon class="fil3" points="2210.61,2115.02 1209.13,2786.4 3687.22,2608.68 "></polygon> <polygon class="fil3" points="4723.89,2115.02 3677.36,2608.68 4723.89,3003.59 "></polygon> <polygon class="fil4" points="2206.3,2115.02 4723.89,2115.02 3682.54,2608.68 "></polygon> <polygon class="fil6" points="3577.79,2569.18 2354.41,3003.57 4723.89,3003.57 "></polygon> <polygon class="fil5" points="3578.64,2569.18 1386.84,2797.8 1870.62,3003.57 2354.39,3003.57 "></polygon> <polygon class="fil3" points="1169.65,2509.94 1169.65,3714.42 1288.12,3734.19 1959.48,3036.27 1573.54,2509.94 "></polygon> <polygon class="fil6" points="1564.56,2529.62 2216.17,3398.43 2216.17,2711.47 "></polygon> <polygon class="fil5" points="2216.17,3398.46 1949.6,3043.04 2216.17,4602.95 "></polygon> <polygon class="fil4" points="1949.6,3043.04 1288.12,3728.47 2216.17,4602.95 "></polygon> <polygon class="fil7" points="1011.67,4622.71 1011.67,3714.42 1271.89,3714.42 2255.66,4622.71 "></polygon> <polygon class="fil6" points="4008.72,120.68 2848.02,515.6 3075.08,762.42 3472.17,589.49 4052.51,120.68 "></polygon> </g> </g> <path class="fil8" d="M1033.84 4327.2l0 -3901.2c0,-81.47 29.25,-150.41 87.74,-206.81 58.49,-56.41 128.47,-84.61 209.95,-84.61l3612.89 0c81.46,0 150.41,29.25 206.82,87.74 58.48,58.49 87.74,128.47 87.74,209.95l0 294.54c0,81.47 -29.26,151.47 -87.74,209.94 -56.41,56.41 -125.36,84.61 -206.82,84.61l-2729.25 0 0 1103 2221.62 0c81.49,0 150.41,29.23 206.82,87.73 58.5,58.5 87.74,127.43 87.74,206.8l0 297.68c0,81.47 -29.24,151.45 -87.74,209.95 -56.41,56.41 -125.33,84.62 -206.82,84.62l-2221.62 0 0 1316.06c0,85.65 -29.25,157.72 -87.74,216.19 -56.4,56.41 -125.34,84.61 -206.81,84.61l-589.09 0c-81.48,0 -151.46,-28.2 -209.95,-84.61 -58.49,-58.47 -87.74,-130.54 -87.74,-216.19z"></path> <polygon class="fil0" points="952.41,3200.95 439.02,3200.95 439.02,3674.84 952.41,3674.84 "></polygon> <polygon class="fil0" points="833.95,2233.47 281.07,2233.47 281.07,2707.37 833.95,2707.37 "></polygon> <polygon class="fil0" points="182.35,2964.07 -15.11,2964.07 -15.11,3141.79 182.35,3141.79 "></polygon> <polygon class="fil0" points="340.3,2865.38 142.84,2865.38 142.84,3043.1 340.3,3043.1 "></polygon> <polygon class="fil0" points="952.4,2588.91 656.22,2588.91 656.22,2885.11 952.4,2885.11 "></polygon> <polygon class="fil0" points="1149.88,2134.73 952.43,2134.73 952.43,2312.45 1149.88,2312.45 "></polygon> <polygon class="fil0" points="1268.36,1364.63 952.43,1364.63 952.43,1660.83 1268.36,1660.83 "></polygon> <polygon class="fil0" points="991.9,693.31 340.29,693.31 340.29,1265.94 991.9,1265.94 "></polygon> <polygon class="fil0" points="83.62,1226.47 -113.84,1226.47 -113.84,1404.19 83.62,1404.19 "></polygon> <polygon class="fil0" points="498.28,594.56 182.34,594.56 182.34,871 498.28,871 "></polygon> <polygon class="fil0" points="1327.6,2.19 853.7,2.19 853.7,456.34 1327.6,456.34 "></polygon> <polygon class="fil0" points="320.55,179.9 123.1,179.9 123.1,357.62 320.55,357.62 "></polygon> <polygon class="fil0" points="774.7,1641.15 340.29,1641.15 340.29,2016.3 774.7,2016.3 "></polygon> <g id="_2436795000528"> <polygon class="fil0" points="3069.55,742.65 2472.85,1048.72 3405.87,1048.72 3460.16,594.56 3080.4,752.52 "></polygon> <polygon class="fil0" points="4654.75,574.87 3953.79,1048.77 5237.26,1048.77 "></polygon> <polygon class="fil0" points="4654.75,574.87 3460.13,594.61 3405.89,1048.77 3967.18,1048.77 "></polygon> <polygon class="fil0" points="4047,120.68 3460.16,594.58 4654.78,574.84 4113.44,120.68 "></polygon> <polygon class="fil0" points="5237.29,1028.56 5237.29,1048.72 4663.48,584.71 4111.77,120.68 5237.29,120.68 "></polygon> <polygon class="fil0" points="1386.85,357.62 1090.66,357.62 1090.66,653.81 1386.85,653.81 "></polygon> <polygon class="fil0" points="2117.45,120.68 2117.45,534.27 2300.54,534.27 2472.87,1048.72 3075.11,742.67 2483.64,120.68 "></polygon> <polygon class="fil0" points="4012.98,120.68 2482.72,120.68 2847.99,515.6 "></polygon> <polygon class="fil0" points="2216.15,1049.88 2216.15,2114.99 1722.5,1759.58 1505.3,1759.58 1510.43,1251.66 1367.08,1251.66 1367.08,535.33 2305,535.33 2472.84,1048.72 "></polygon> <polygon class="fil0" points="1415.8,2727.08 1110.4,2727.08 1110.4,1961.11 1503.06,1961.11 1503.06,1759.55 1721.2,1759.55 2216.16,2114.97 "></polygon> <polygon class="fil0" points="2210.61,2115.02 1209.13,2786.4 3687.22,2608.68 "></polygon> <polygon class="fil0" points="4723.89,2115.02 3677.36,2608.68 4723.89,3003.59 "></polygon> <polygon class="fil0" points="2206.3,2115.02 4723.89,2115.02 3682.54,2608.68 "></polygon> <polygon class="fil0" points="3577.79,2569.18 2354.41,3003.57 4723.89,3003.57 "></polygon> <polygon class="fil0" points="3578.64,2569.18 1386.84,2797.8 1870.62,3003.57 2354.39,3003.57 "></polygon> <polygon class="fil0" points="1169.65,2509.94 1169.65,3714.42 1288.12,3734.19 1959.48,3036.27 1573.54,2509.94 "></polygon> <polygon class="fil0" points="1564.56,2529.62 2216.17,3398.43 2216.17,2711.47 "></polygon> <polygon class="fil0" points="2216.17,3398.46 1949.6,3043.04 2216.17,4602.95 "></polygon> <polygon class="fil0" points="1949.6,3043.04 1288.12,3728.47 2216.17,4602.95 "></polygon> <polygon class="fil0" points="1011.67,4622.71 1011.67,3714.42 1271.89,3714.42 2255.66,4622.71 "></polygon> <polygon class="fil0" points="4008.72,120.68 2848.02,515.6 3075.08,762.42 3472.17,589.49 4052.51,120.68 "></polygon> </g> </g> </svg> 